HIERARCHY
ROOT Hips
{
	OFFSET	0.00	0.00	0.00
	CHANNELS 6 Xposition Yposition Zposition Zrotation Xrotation Yrotation
	JOINT LeftUpperLeg
	{
		OFFSET	 0.100000	-0.066564	-0.000554
		CHANNELS 3 Zrotation Xrotation Yrotation
		JOINT LeftLowerLeg
		{
			OFFSET	 0.002447	-0.463436	-0.005172
			CHANNELS 3 Zrotation Xrotation Yrotation
			JOINT LeftFoot
			{
				OFFSET	-0.002447	-0.420480	-0.020576
				CHANNELS 3 Zrotation Xrotation Yrotation
				JOINT LeftToes
				{
					OFFSET	 0.003734	-0.104922	 0.126407
					CHANNELS 3 Zrotation Xrotation Yrotation
					End Site
					{
						OFFSET	 0.000000	 0.000000	 0.059955
					}
				}
			}
		}
	}
	JOINT RightUpperLeg
	{
		OFFSET	-0.100000	-0.066564	-0.000554
		CHANNELS 3 Zrotation Xrotation Yrotation
		JOINT RightLowerLeg
		{
			OFFSET	-0.002447	-0.463436	-0.005146
			CHANNELS 3 Zrotation Xrotation Yrotation
			JOINT RightFoot
			{
				OFFSET	 0.002447	-0.420479	-0.020602
				CHANNELS 3 Zrotation Xrotation Yrotation
				JOINT RightToes
				{
					OFFSET	-0.003734	-0.104922	 0.126407
					CHANNELS 3 Zrotation Xrotation Yrotation
					End Site
					{
						OFFSET	-0.000000	 0.000000	 0.059955
					}
				}
			}
		}
	}
	JOINT Spine
	{
		OFFSET	 0.000000	 0.099235	-0.012273
		CHANNELS 3 Zrotation Xrotation Yrotation
		JOINT Chest
		{
			OFFSET	-0.000001	 0.116455	-0.014223
			CHANNELS 3 Zrotation Xrotation Yrotation
			JOINT UpperChest
			{
				OFFSET	 0.000001	 0.133602	-0.016265
				CHANNELS 3 Zrotation Xrotation Yrotation
				JOINT LeftShoulder
				{
					OFFSET	 0.061058	 0.091105	 0.007056
					CHANNELS 3 Zrotation Xrotation Yrotation
					JOINT LeftUpperArm
					{
						OFFSET	 0.133942	-0.002659	-0.026009
						CHANNELS 3 Zrotation Xrotation Yrotation
						JOINT LeftLowerArm
						{
							OFFSET	 0.274047	 0.000000	 0.000000
							CHANNELS 3 Zrotation Xrotation Yrotation
							JOINT LeftHand
							{
								OFFSET	 0.276145	 0.000000	 0.000000
								CHANNELS 3 Zrotation Xrotation Yrotation
								End Site
								{
									OFFSET	 0.165687	 0.000000	 0.000000
								}
							}
						}
					}
				}
				JOINT Neck
				{
					OFFSET	 0.000000	 0.150325	 0.007929
					CHANNELS 3 Zrotation Xrotation Yrotation
					JOINT Head
					{
						OFFSET	 0.000000	 0.103218	 0.031424
						CHANNELS 3 Zrotation Xrotation Yrotation
						End Site
						{
							OFFSET	 0.000000	 0.061931	 0.018855
						}
					}
				}
				JOINT RightShoulder
				{
					OFFSET	-0.061057	 0.091105	 0.007056
					CHANNELS 3 Zrotation Xrotation Yrotation
					JOINT RightUpperArm
					{
						OFFSET	-0.133943	-0.002660	-0.026009
						CHANNELS 3 Zrotation Xrotation Yrotation
						JOINT RightLowerArm
						{
							OFFSET	-0.274047	 0.000000	 0.000000
							CHANNELS 3 Zrotation Xrotation Yrotation
							JOINT RightHand
							{
								OFFSET	-0.276145	 0.000000	 0.000000
								CHANNELS 3 Zrotation Xrotation Yrotation
								End Site
								{
									OFFSET	-0.165687	 0.000000	 0.000000
								}
							}
						}
					}
				}
			}
		}
	}
}
MOTION
Frames:    8
Frame Time: 0.03333334
 0.159840	 1.000230	-1.174210	 0.969531	 2.044852	 69.023830	 3.983121	 22.150070	 4.508938	-0.001172	 0.093573	-0.000689	-4.519108	-18.371940	 29.061830	 0.000380	 0.388584	 0.763790	-9.551861	-20.441740	-7.505249	-1.261675	 45.001510	 0.522838	 2.377884	-19.819370	-13.951050	-0.000160	-0.551758	 0.000033	 0.067399	 0.272656	-1.181536	-0.000000	 0.000000	 0.000000	 0.138481	 0.545849	-2.365961	-2.234379	-0.807016	 10.535290	-73.695930	 4.790923	-32.684120	-26.449650	 4.563567	-38.559680	 20.525100	-4.169094	-14.789130	-4.484082	 10.891700	 50.738860	-4.688978	 10.636600	 50.794270	 3.142418	 5.529023	-15.601860	 80.077610	-0.899850	 6.082186	 11.098150	 20.025010	 44.031930	-19.604430	 16.344980	 9.046636
 0.161460	 0.998300	-1.165400	 1.022612	 2.199267	 68.127590	 3.953935	 22.559260	 4.955000	-0.001388	 0.083003	 0.000033	-4.514722	-18.263820	 29.515460	-0.000105	 0.397825	 0.852560	-9.070540	-20.696580	-6.728757	-1.084907	 45.753360	 0.457327	 2.268450	-20.625640	-13.949680	-0.000105	-0.815704	-0.000813	 0.010172	 0.290677	-1.160449	-0.000000	 0.000000	 0.000000	 0.023691	 0.582069	-2.326350	-2.443641	-1.146090	 10.267410	-73.328990	 4.285123	-33.722840	-25.547720	 1.601929	-36.961000	 19.774240	-4.426788	-14.298860	-4.822361	 10.600700	 51.164170	-4.698540	 10.572710	 51.122810	 2.881027	 5.531314	-15.606620	 80.299320	-0.747857	 6.255460	 10.945580	 20.767380	 44.105050	-19.502550	 15.816860	 8.927321
 0.163000	 0.996590	-1.156950	 0.983877	 2.470957	 67.189160	 3.805917	 22.826070	 5.482253	-0.001605	 0.082996	-0.000304	-4.719229	-18.192360	 29.948230	 0.000365	 0.403486	 0.909962	-8.831695	-21.067270	-6.010643	-0.571993	 46.471620	 0.246169	 2.222106	-21.320690	-13.892170	-0.000144	-1.261988	 0.000719	-0.058067	 0.265506	-1.198536	-0.000000	 0.000000	 0.000000	-0.110829	 0.530318	-2.401209	-2.529828	-1.271273	 9.729269	-73.100570	 3.381940	-34.706390	-23.999770	-0.393504	-35.459370	 19.419870	-5.044131	-13.663410	-4.843565	 10.602970	 51.457790	-4.727308	 10.652320	 51.540920	 2.713770	 5.378872	-15.671740	 80.615950	-0.457796	 6.116764	 10.646720	 21.434700	 44.051040	-19.367160	 15.482890	 8.888894
 0.164910	 0.994760	-1.145660	 0.833933	 2.533124	 66.156490	 3.991509	 23.153340	 7.092788	-0.001620	 0.078414	-0.000438	-5.355147	-17.553740	 29.497880	 0.000007	 0.418449	 1.016719	-8.709980	-21.317660	-7.659220	-1.202369	 47.177740	 0.524518	 2.703420	-22.017360	-11.415570	 0.000016	-1.734294	-0.000540	-0.017710	 0.263412	-1.295696	-0.000000	 0.000000	 0.000000	-0.030147	 0.528627	-2.593875	-2.033639	-1.132164	 8.867532	-73.308810	 1.879292	-36.010480	-22.173110	-2.950114	-33.183180	 19.901960	-4.954209	-14.147590	-4.915419	 10.722480	 51.918270	-5.032105	 10.704180	 52.112160	 2.697526	 5.460450	-15.858980	 80.923610	 0.086920	 6.080019	 10.608370	 21.820320	 43.985330	-19.229450	 15.616870	 8.808264
 0.165750	 0.993900	-1.137520	 0.686516	 2.418360	 65.552930	 4.366695	 23.357660	 8.090146	-0.001491	 0.078546	 0.000369	-6.192067	-16.812020	 29.259880	-0.000051	 0.430170	 1.063232	-8.477574	-21.346420	-8.783240	-1.431544	 47.474310	 0.629220	 2.656954	-22.411260	-9.908424	-0.000544	-1.830217	 0.000125	 0.054477	 0.364672	-1.354615	-0.000000	 0.000000	 0.000000	 0.119150	 0.730801	-2.713209	-2.002769	-1.060964	 8.617767	-73.244100	 1.087005	-37.103820	-20.439950	-4.242785	-31.091340	 19.957690	-5.424993	-15.103710	-5.010413	 10.876910	 52.360240	-5.168496	 10.658970	 52.459300	 2.614706	 5.438169	-15.869430	 80.953240	 0.252633	 6.019763	 10.718690	 22.159560	 43.916860	-19.207140	 15.690890	 8.793960
 0.167350	 0.993890	-1.127640	 0.594354	 2.541017	 65.097290	 4.685153	 23.542220	 10.624840	-0.001834	 0.083028	 0.000340	-8.381823	-15.718990	 27.229750	-0.000159	 0.437945	 1.019479	-8.319922	-21.213020	-9.323001	-1.206896	 47.620570	 0.531940	 2.413498	-22.839930	-9.157182	 0.000222	-1.976914	 0.000617	 0.036045	 0.464296	-1.497143	-0.000000	 0.000000	 0.000000	 0.083401	 0.928343	-3.000096	-2.253597	-1.252063	 8.091599	-72.871310	 0.390103	-37.536500	-18.884010	-5.982594	-29.654240	 19.782400	-6.097011	-16.017790	-5.277462	 10.908090	 52.583790	-5.282612	 10.685670	 52.856290	 2.339249	 5.392115	-16.186390	 80.845920	 0.345178	 6.263028	 10.934170	 22.507120	 43.572720	-19.449590	 16.130250	 8.777846
 0.169130	 0.994620	-1.120840	 0.570301	 2.916059	 64.590800	 4.591886	 23.635400	 13.165270	-0.000347	 0.083044	 0.000011	-10.331350	-14.466410	 24.893550	-0.000348	 0.451259	 0.970321	-8.329671	-21.163960	-9.369060	-1.185471	 47.595790	 0.522768	 2.274204	-23.081940	-8.733850	 0.000662	-2.058610	 0.001192	-0.072411	 0.435852	-1.545937	-0.000000	 0.000000	 0.000000	-0.133137	 0.875506	-3.093462	-2.498644	-1.564742	 8.189705	-72.843310	-0.090853	-38.044010	-18.256480	-7.202423	-29.125160	 19.988610	-6.196162	-16.142330	-5.445839	 10.821180	 53.018800	-5.252636	 10.876620	 53.124690	 2.085838	 5.254302	-16.029060	 80.752140	 0.455062	 6.402945	 10.834010	 22.628950	 43.210720	-19.662750	 16.343420	 8.818292
 0.171050	 0.995740	-1.114520	 0.525209	 3.493475	 64.011270	 4.291131	 23.586630	 15.560110	-0.001253	 0.082870	-0.000703	-11.815450	-12.394440	 22.765080	-0.000650	 0.490829	 1.009827	-8.443911	-21.201230	-9.278606	-1.276586	 47.454860	 0.560971	 2.177358	-23.235390	-8.355535	-0.000543	-2.286761	-0.000674	-0.248489	 0.331064	-1.529516	-0.000000	 0.000000	 0.000000	-0.487758	 0.669070	-3.061370	-2.640321	-1.574914	 8.275233	-72.165500	-0.375320	-37.105480	-18.509470	-8.171004	-30.413870	 20.322690	-6.286245	-16.339380	-5.259087	 11.112790	 53.342330	-4.914345	 11.338240	 53.336240	 1.795534	 4.902609	-16.032070	 80.741860	 0.627605	 6.005197	 10.631860	 22.678690	 42.970170	-19.894330	 16.662800	 8.754150
